<svg xmlns="http://www.w3.org/2000/svg" viewBox="0 0 100 100">
  <rect width="100" height="100" rx="20" fill="#0a0a0f"/>
  <path d="M50 15c-16 0-29 12-29 27 0 8 4 15 9 20v8c0 3 2 5 5 5h30c3 0 5-2 5-5v-8c5-5 9-12 9-20 0-15-13-27-29-27z" fill="#e0e0e0"/>
  <circle cx="37" cy="40" r="6" fill="#0a0a0f"/>
  <circle cx="63" cy="40" r="6" fill="#0a0a0f"/>
  <path d="M44 55c0-3 3-6 6-6s6 3 6 6" fill="none" stroke="#0a0a0f" stroke-width="2" stroke-linecap="round"/>
  <rect x="47" y="58" width="6" height="6" rx="1" fill="#0a0a0f"/>
  <path d="M32 72l36 0" stroke="#00ff88" stroke-width="3" stroke-linecap="round"/>
  <path d="M38 78l24 0" stroke="#00ff88" stroke-width="3" stroke-linecap="round"/>
  <path d="M29 66l8-4" stroke="#e0e0e0" stroke-width="2.5" stroke-linecap="round"/>
  <path d="M71 66l-8-4" stroke="#e0e0e0" stroke-width="2.5" stroke-linecap="round"/>
</svg>
